<?xml version="1.0" encoding="utf-8"?>
<!-- Generator: Adobe Illustrator 15.1.0, SVG Export Plug-In . SVG Version: 6.00 Build 0)  -->
<!DOCTYPE svg PUBLIC "-//W3C//DTD SVG 1.1//EN" "http://www.w3.org/Graphics/SVG/1.1/DTD/svg11.dtd">
<svg version="1.1" id="linkedin" xmlns="http://www.w3.org/2000/svg" xmlns:xlink="http://www.w3.org/1999/xlink" x="0px" y="0px"
	 width="792px" height="612px" viewBox="0 0 792 612" enable-background="new 0 0 792 612" xml:space="preserve">
<circle fill="#013088" cx="396" cy="306" r="293.76"/>
<path fill="#F7F7F7" d="M495.569,156.06H296.431c-27.702,0-50.371,22.668-50.371,50.371v199.139
	c0,27.702,22.668,50.371,50.371,50.371h199.139c27.702,0,50.371-22.669,50.371-50.371V206.431
	C545.94,178.729,523.271,156.06,495.569,156.06z M358.515,399.713H321.03V268.515h37.485V399.713z M339.772,249.772
	c-10.352,0-18.743-8.391-18.743-18.743c0-10.352,8.391-18.742,18.743-18.742s18.743,8.391,18.743,18.742
	C358.515,241.382,350.125,249.772,339.772,249.772z M489.713,399.713h-37.485v-74.971c0-10.352-8.391-18.742-18.742-18.742
	c-10.353,0-18.743,8.391-18.743,18.742v74.971h-37.485V268.515h37.485v23.274c7.729-10.619,19.551-23.274,32.801-23.274
	c23.292,0,42.173,20.979,42.173,46.855L489.713,399.713L489.713,399.713z"/>
</svg>
